<?xml version="1.0" standalone="no"?><!DOCTYPE svg PUBLIC "-//W3C//DTD SVG 1.1//EN" "http://www.w3.org/Graphics/SVG/1.1/DTD/svg11.dtd"><svg t="1743093904175" class="icon" viewBox="0 0 1024 1024" version="1.1" xmlns="http://www.w3.org/2000/svg" p-id="2020" xmlns:xlink="http://www.w3.org/1999/xlink" width="48" height="48"><path d="M480.395062 360.296296c-98.607407 0-179.09465-80.487243-179.09465-179.09465S381.787654 2.106996 480.395062 2.106996s179.09465 80.487243 179.09465 179.09465-80.487243 179.09465-179.09465 179.09465z m0-294.979424c-64.052675 0-115.884774 51.832099-115.884774 115.884774S416.342387 297.08642 480.395062 297.08642s115.884774-51.832099 115.884773-115.884774-51.832099-115.884774-115.884773-115.884774zM863.868313 592.065844c-75.430453 0-136.954733-61.52428-136.954733-136.954733s61.52428-136.954733 136.954733-136.954732 136.954733 61.52428 136.954732 136.954732-61.52428 136.954733-136.954732 136.954733z m0-210.699589c-40.454321 0-73.744856 33.290535-73.744856 73.744856s33.290535 73.744856 73.744856 73.744856 73.744856-33.290535 73.744856-73.744856-33.290535-73.744856-73.744856-73.744856zM429.82716 499.779424c-5.899588 0-11.377778-1.685597-16.855967-4.635391-14.748971-9.270782-19.384362-28.655144-10.11358-43.404115 17.277366-27.812346 47.618107-44.668313 80.487243-44.668313 32.869136 0 62.788477 16.434568 80.487243 44.668313 9.270782 14.748971 4.635391 34.133333-10.11358 43.404115-14.748971 9.270782-34.133333 4.635391-43.404116-10.11358-5.899588-9.270782-16.013169-14.748971-26.969547-14.748972-10.956379 0-21.069959 5.478189-26.969547 14.748972-5.899588 9.270782-16.013169 14.748971-26.548149 14.748971zM665.8107 684.773663c-26.126749 0-49.725103-14.327572-61.945679-37.504527l56.04609-29.076543c0.842798 1.685597 2.949794 3.371193 5.478189 3.371193 1.264198 0 2.528395-0.421399 3.371194-0.842798l34.976132 52.674897c-10.956379 7.163786-24.019753 11.377778-37.925926 11.377778zM294.979424 882.831276c-54.781893 0-99.028807-44.246914-99.028807-99.028807 0-19.805761 5.899588-39.190123 17.277367-55.624691l52.253497 35.397531c-4.213992 5.899588-6.320988 13.063374-6.320987 20.22716 0 19.805761 16.013169 35.81893 35.81893 35.81893v63.209877z" fill="#1296db" p-id="2021"></path><path d="M240.197531 777.902881c-6.320988 0-12.220576-1.685597-17.698766-5.47819-14.327572-9.692181-18.120165-29.497942-8.006584-43.825514l187.944033-274.330864c9.692181-14.327572 29.497942-18.120165 43.825514-8.006585 14.327572 9.692181 18.120165 29.497942 8.006585 43.825515l-187.944033 274.330864c-6.320988 8.427984-16.013169 13.484774-26.126749 13.484774zM632.941564 664.967901c-10.956379 0-21.491358-5.478189-27.390947-15.591769l-93.550617-161.395885c-8.849383-15.17037-3.792593-34.554733 11.377778-42.982716 15.17037-8.849383 34.554733-3.792593 43.404115 11.377778l93.550617 161.395884c8.849383 15.17037 3.792593 34.554733-11.377777 43.404116-5.05679 2.528395-10.534979 3.792593-16.013169 3.792592z" fill="#1296db" p-id="2022"></path><path d="M686.880658 678.874074c-8.006584 0-16.013169-2.949794-22.334156-8.849383-12.641975-12.220576-12.641975-32.026337-0.421399-44.668312l101.978601-103.664198c12.220576-12.641975 32.447737-12.641975 44.668312-0.421399 12.641975 12.220576 12.641975 32.026337 0.4214 44.668313l-101.978601 103.664197c-5.899588 6.320988-14.327572 9.270782-22.334157 9.270782zM754.304527 1021.893004c-8.849383 0-18.120165-3.792593-24.441153-11.377778L623.670782 882.831276H294.979424c-17.277366 0-31.604938-14.327572-31.604938-31.604939s14.327572-31.604938 31.604938-31.604938h343.440329c9.270782 0 18.120165 4.213992 24.441152 11.377778l115.884774 139.061728c11.377778 13.484774 9.270782 33.290535-4.213992 44.668313-5.899588 4.635391-13.063374 7.163786-20.22716 7.163786z" fill="#1296db" p-id="2023"></path><path d="M558.353909 988.18107H52.674897c-17.277366 0-31.604938-14.327572-31.604938-31.604938s14.327572-31.604938 31.604938-31.604939h505.679012c17.277366 0 31.604938 14.327572 31.604939 31.604939s-14.327572 31.604938-31.604939 31.604938z" fill="#1296db" p-id="2024"></path></svg>